<?xml version="1.0" encoding="utf-8"?>
<!-- Generator: Adobe Illustrator 27.2.0, SVG Export Plug-In . SVG Version: 6.00 Build 0)  -->
<svg version="1.1" id="Layer_1" xmlns="http://www.w3.org/2000/svg" xmlns:xlink="http://www.w3.org/1999/xlink" x="0px" y="0px"
	 viewBox="0 0 240 200" style="enable-background:new 0 0 240 200;" xml:space="preserve">
<style type="text/css">
	.st0{fill:none;stroke:#000000;stroke-miterlimit:10;}
	.st1{fill:#FFFFFF;stroke:#000000;stroke-miterlimit:10;}
</style>
<polyline class="st0" points="94.1999969,161.3000031 102,136 123.0999985,126 148.6999969,130.5 164,130.8999939 
	178.6999969,111.5 179.8000031,94 169.3000031,78.5 154,68.9000015 "/>
<polygon class="st0" points="29.2999992,16 119.8000031,16 210.1999969,16 210.1999969,94.9000015 210.1999969,173.8000031 
	119.8000031,173.8000031 29.2999992,173.8000031 29.2999992,94.9000015 "/>
<polyline class="st0" points="53.0999985,154.5 46.9000015,124 54,114.9000015 68.4000015,109.3000031 85.3000031,110.9000015 
	112.4000015,107.0999985 126.1999969,99.8000031 127.8000031,89.5 "/>
<polyline class="st0" points="151.6000061,94.1999969 137.6000061,73.5999985 138.8999939,52.4000015 152.1999969,44.4000015 
	181.8000031,51.0999985 196.6999969,78.1999969 201.1000061,107.5 194.8999939,126 "/>
<polygon class="st1" points="46.9000015,56.9000015 62.4000015,29.5 102.1999969,34.5999985 113.6999969,65.5999985 
	77.5999985,55.9000015 59.0999985,89.5 "/>
<polygon class="st1" points="88.5999985,73.0999985 73.1999969,93.5999985 105.5,98.1999969 115,79.6999969 "/>
<line class="st0" x1="145.9924164" y1="161.2165527" x2="186.3510742" y2="147.6560516"/>
<line class="st0" x1="72.7010803" y1="157.3421173" x2="74.9611588" y2="130.2210999"/>
<line class="st0" x1="124.6830368" y1="53.0553398" x2="123.7144241" y2="24.3199711"/>
</svg>
