<?xml version="1.0" encoding="utf-8"?>
<!-- Generator: Adobe Illustrator 27.4.0, SVG Export Plug-In . SVG Version: 6.00 Build 0)  -->
<svg version="1.1" id="Layer_1" xmlns="http://www.w3.org/2000/svg" xmlns:xlink="http://www.w3.org/1999/xlink" x="0px" y="0px"
	 viewBox="0 0 240 200" style="enable-background:new 0 0 240 200;" xml:space="preserve">
<style type="text/css">
	.st0{fill:none;stroke:#000000;stroke-miterlimit:10;}
	.st1{fill:#FFFFFF;stroke:#000000;stroke-miterlimit:10;}
</style>
<polyline class="st0" points="94.2,161.3 102,136 123.1,126 148.7,130.5 164,130.9 178.7,111.5 179.8,94 169.3,78.5 154,68.9 "/>
<polygon class="st0" points="29.3,16 119.8,16 210.2,16 210.2,94.9 210.2,173.8 119.8,173.8 29.3,173.8 29.3,94.9 "/>
<polyline class="st0" points="53.1,154.5 46.9,124 54,114.9 68.4,109.3 85.3,110.9 112.4,107.1 126.2,99.8 127.8,89.5 "/>
<polyline class="st0" points="151.6,94.2 137.6,73.6 138.9,52.4 152.2,44.4 181.8,51.1 196.7,78.2 201.1,107.5 194.9,126 "/>
<polygon class="st1" points="46.9,56.9 62.4,29.5 102.2,34.6 113.7,65.6 77.6,55.9 59.1,89.5 "/>
<polygon class="st1" points="88.6,73.1 73.2,93.6 105.5,98.2 115,79.7 "/>
</svg>
